<svg xmlns="http://www.w3.org/2000/svg" width="14" height="14" viewBox="0 0 14 14" fill="none">
    <g clip-path="url(#clip0_2320_4385)">
        <path fill-rule="evenodd" clip-rule="evenodd" d="M7.98838 2.50837C7.4713 2.50837 7.05208 2.90621 7.05208 3.39708C7.05208 3.88742 7.4713 4.28526 7.98838 4.28526C8.50545 4.28526 8.92467 3.88742 8.92467 3.39708C8.92467 2.90621 8.50545 2.50837 7.98838 2.50837ZM7.75577 4.98521C7.30393 4.98521 6.90984 5.19161 6.6505 5.36914C6.47779 5.48678 6.05803 5.82633 5.39123 6.38671L5.41797 6.87064L6.6505 6.20224C5.90563 8.96301 5.50994 10.4362 5.46235 10.6217C5.39123 10.9003 5.58052 11.2056 5.92756 11.2757C6.27352 11.3463 6.77776 11.1939 7.15474 10.9308C7.40606 10.7554 7.83758 10.41 8.44984 9.89342L8.42257 9.4095L7.19057 10.0779C7.92154 7.37809 8.31616 5.91135 8.37445 5.67767C8.46214 5.3269 8.20815 4.98521 7.75577 4.98521ZM6.99967 0.583374C10.5438 0.583374 13.4163 3.4559 13.4163 7.00004C13.4163 10.5436 10.5438 13.4167 6.99967 13.4167C3.45607 13.4167 0.583008 10.5436 0.583008 7.00004C0.583008 3.4559 3.45607 0.583374 6.99967 0.583374Z" fill="black"></path>
    </g>
    <defs>
        <clipPath id="clip0_2320_4385">
            <rect width="14" height="14" fill="white"></rect>
        </clipPath>
    </defs>
</svg>